HIERARCHY
ROOT Hip
{
	OFFSET	0.0000	0.0000	0.0000
	CHANNELS 6 Xposition Yposition Zposition Xrotation Yrotation Zrotation
	JOINT LowerSpine
	{
		OFFSET	0.0000	9.9786	-5.3998
		CHANNELS 3 Xrotation Yrotation Zrotation
		JOINT MiddleSpine
		{
			OFFSET	0.0000	9.1062	0.4757
			CHANNELS 3 Xrotation Yrotation Zrotation
			JOINT Chest
			{
				OFFSET	0.0000	11.2679	-2.5081
				CHANNELS 3 Xrotation Yrotation Zrotation
				JOINT Neck
				{
					OFFSET	0.0000	25.3918	-0.5281
					CHANNELS 3 Xrotation Yrotation Zrotation
					JOINT Head
					{
						OFFSET	0.0000	14.3390	3.9002
						CHANNELS 3 Xrotation Yrotation Zrotation
						End Site
						{
							OFFSET	0.0001	20.0354	0.5981
						}
					}
				}
				JOINT LClavicle
				{
					OFFSET	2.5635	24.5043	8.3953
					CHANNELS 3 Xrotation Yrotation Zrotation
					JOINT LShoulder
					{
						OFFSET	14.9764	3.5148	-5.6873
						CHANNELS 3 Xrotation Yrotation Zrotation
						JOINT LForearm
						{
							OFFSET	31.8128	-0.1130	-0.2757
							CHANNELS 3 Xrotation Yrotation Zrotation
							JOINT LHand
							{
								OFFSET	26.5386	0.0770	-0.1589
								CHANNELS 3 Xrotation Yrotation Zrotation
								JOINT LFinger1
								{
									OFFSET	10.2856	0.8995	2.8568
									CHANNELS 3 Xrotation Yrotation Zrotation
									JOINT LFinger11
									{
										OFFSET	3.8473	-0.9382	0.6779
										CHANNELS 3 Xrotation Yrotation Zrotation
										JOINT LFinger12
										{
											OFFSET	2.6265	-0.6407	0.4630
											CHANNELS 3 Xrotation Yrotation Zrotation
											End Site
											{
												OFFSET	1.8690	-0.5579	0.3032
											}
										}
									}
								}
								JOINT LFinger2
								{
									OFFSET	10.4391	1.0388	0.2487
									CHANNELS 3 Xrotation Yrotation Zrotation
									JOINT LFinger21
									{
										OFFSET	4.7570	0.0133	-0.0281
										CHANNELS 3 Xrotation Yrotation Zrotation
										JOINT LFinger22
										{
											OFFSET	2.6367	0.0080	-0.0160
											CHANNELS 3 Xrotation Yrotation Zrotation
											End Site
											{
												OFFSET	2.3683	-0.1672	0.0032
											}
										}
									}
								}
								JOINT LFinger3
								{
									OFFSET	9.8932	0.6931	-2.3405
									CHANNELS 3 Xrotation Yrotation Zrotation
									JOINT LFinger31
									{
										OFFSET	4.3165	-0.2186	-0.2702
										CHANNELS 3 Xrotation Yrotation Zrotation
										JOINT LFinger32
										{
											OFFSET	2.4597	-0.1237	-0.1546
											CHANNELS 3 Xrotation Yrotation Zrotation
											End Site
											{
												OFFSET	2.1748	-0.2674	-0.1028
											}
										}
									}
								}
								JOINT LFinger4
								{
									OFFSET	9.1805	-0.6977	-4.0422
									CHANNELS 3 Xrotation Yrotation Zrotation
									JOINT LFinger41
									{
										OFFSET	2.6551	-0.5537	-0.7329
										CHANNELS 3 Xrotation Yrotation Zrotation
										JOINT LFinger42
										{
											OFFSET	1.9469	-0.4055	-0.5378
											CHANNELS 3 Xrotation Yrotation Zrotation
											End Site
											{
												OFFSET	1.7281	-0.4748	-0.3965
											}
										}
									}
								}
								JOINT LFinger0
								{
									OFFSET	2.1276	-1.6104	1.6129
									CHANNELS 3 Xrotation Yrotation Zrotation
									JOINT LFinger01
									{
										OFFSET	3.9614	-1.3011	2.9868
										CHANNELS 3 Xrotation Yrotation Zrotation
										JOINT LFinger02
										{
											OFFSET	2.6086	-0.9334	1.8794
											CHANNELS 3 Xrotation Yrotation Zrotation
											End Site
											{
												OFFSET	1.9183	-0.6603	1.3135
											}
										}
									}
								}
							}
						}
					}
				}
				JOINT RClavicle
				{
					OFFSET	-2.5635	24.5043	8.3953
					CHANNELS 3 Xrotation Yrotation Zrotation
					JOINT RShoulder
					{
						OFFSET	-14.9790	3.5154	-5.6882
						CHANNELS 3 Xrotation Yrotation Zrotation
						JOINT RForearm
						{
							OFFSET	-31.8128	-0.1130	-0.2757
							CHANNELS 3 Xrotation Yrotation Zrotation
							JOINT RHand
							{
								OFFSET	-26.5386	0.0770	-0.1589
								CHANNELS 3 Xrotation Yrotation Zrotation
								JOINT RFinger1
								{
									OFFSET	-10.2856	0.8995	2.8568
									CHANNELS 3 Xrotation Yrotation Zrotation
									JOINT RFinger11
									{
										OFFSET	-3.8473	-0.9382	0.6779
										CHANNELS 3 Xrotation Yrotation Zrotation
										JOINT RFinger12
										{
											OFFSET	-2.6265	-0.6407	0.4630
											CHANNELS 3 Xrotation Yrotation Zrotation
											End Site
											{
												OFFSET	-1.8690	-0.5579	0.3032
											}
										}
									}
								}
								JOINT RFinger2
								{
									OFFSET	-10.4391	1.0388	0.2487
									CHANNELS 3 Xrotation Yrotation Zrotation
									JOINT RFinger21
									{
										OFFSET	-4.7570	0.0133	-0.0281
										CHANNELS 3 Xrotation Yrotation Zrotation
										JOINT RFinger22
										{
											OFFSET	-2.6367	0.0080	-0.0160
											CHANNELS 3 Xrotation Yrotation Zrotation
											End Site
											{
												OFFSET	-2.3683	-0.1672	0.0032
											}
										}
									}
								}
								JOINT RFinger3
								{
									OFFSET	-9.8932	0.6931	-2.3405
									CHANNELS 3 Xrotation Yrotation Zrotation
									JOINT RFinger31
									{
										OFFSET	-4.3165	-0.2185	-0.2702
										CHANNELS 3 Xrotation Yrotation Zrotation
										JOINT RFinger32
										{
											OFFSET	-2.4597	-0.1237	-0.1546
											CHANNELS 3 Xrotation Yrotation Zrotation
											End Site
											{
												OFFSET	-2.1748	-0.2674	-0.1028
											}
										}
									}
								}
								JOINT RFinger4
								{
									OFFSET	-9.1805	-0.6977	-4.0422
									CHANNELS 3 Xrotation Yrotation Zrotation
									JOINT RFinger41
									{
										OFFSET	-2.6551	-0.5537	-0.7329
										CHANNELS 3 Xrotation Yrotation Zrotation
										JOINT RFinger42
										{
											OFFSET	-1.9469	-0.4055	-0.5378
											CHANNELS 3 Xrotation Yrotation Zrotation
											End Site
											{
												OFFSET	-1.7281	-0.4748	-0.3965
											}
										}
									}
								}
								JOINT RFinger0
								{
									OFFSET	-2.1276	-1.6104	1.6130
									CHANNELS 3 Xrotation Yrotation Zrotation
									JOINT RFinger01
									{
										OFFSET	-3.9614	-1.3011	2.9868
										CHANNELS 3 Xrotation Yrotation Zrotation
										JOINT RFinger02
										{
											OFFSET	-2.6086	-0.9334	1.8794
											CHANNELS 3 Xrotation Yrotation Zrotation
											End Site
											{
												OFFSET	-1.9183	-0.6603	1.3135
											}
										}
									}
								}
							}
						}
					}
				}
			}
		}
	}
	JOINT RThigh
	{
		OFFSET	-10.6746	4.5106	-0.8799
		CHANNELS 3 Xrotation Yrotation Zrotation
		JOINT RShin
		{
			OFFSET	-0.8542	-46.4297	0.0000
			CHANNELS 3 Xrotation Yrotation Zrotation
			JOINT RFoot
			{
				OFFSET	0.0000	-45.5911	0.0000
				CHANNELS 3 Xrotation Yrotation Zrotation
				JOINT RToe
				{
					OFFSET	0.0000	-5.0109	10.4784
					CHANNELS 3 Xrotation Yrotation Zrotation
					End Site
					{
						OFFSET	0.0000	0.0000	7.0295
					}
				}
			}
		}
	}
	JOINT LThigh
	{
		OFFSET	10.6745	4.5109	-0.8799
		CHANNELS 3 Xrotation Yrotation Zrotation
		JOINT LShin
		{
			OFFSET	0.8542	-46.4301	0.0000
			CHANNELS 3 Xrotation Yrotation Zrotation
			JOINT LFoot
			{
				OFFSET	0.0000	-45.5911	0.0000
				CHANNELS 3 Xrotation Yrotation Zrotation
				JOINT LToe
				{
					OFFSET	0.0000	-5.0109	10.4784
					CHANNELS 3 Xrotation Yrotation Zrotation
					End Site
					{
						OFFSET	0.0000	0.0000	7.0295
					}
				}
			}
		}
	}
}
MOTION
Frames:	4
Frame Time: 0.0333333000
	0.3427	96.0426	2.7991	-9.004548	-0.000001	-1.642768	0.000000	0.000000	0.000000	2.385318	1.577021	0.733622	7.888245	5.364878	2.190338	0.000000	0.000000	0.000000	0.000000	0.000000	0.000000	0.000000	0.000000	-15.352540	13.747270	-21.957310	-59.596580	-1.445763	-31.311320	-0.014301	0.000000	0.000000	0.000000	0.000000	0.000000	0.000000	0.000000	0.000000	0.000000	0.000000	0.000000	0.000000	0.000000	0.000000	0.000000	0.000000	0.000000	0.000000	0.000000	0.000000	0.000000	0.000000	0.000000	0.000000	0.000000	0.000000	0.000000	0.000000	0.000000	0.000000	0.000000	0.000000	0.000000	0.000000	0.000000	0.000000	0.000000	0.000000	0.000000	0.000000	0.000000	0.000000	0.000000	0.000000	0.000000	0.000000	0.000000	0.000000	0.000000	0.000000	14.965290	12.044530	24.021360	57.068060	-1.228379	28.399600	0.024110	0.000000	0.000000	0.000000	0.000000	0.000000	0.000000	0.000000	0.000000	0.000000	0.000000	0.000000	0.000000	0.000000	0.000000	0.000000	0.000000	0.000000	0.000000	0.000000	0.000000	0.000000	0.000000	0.000000	0.000000	0.000000	0.000000	0.000000	0.000000	0.000000	0.000000	0.000000	0.000000	0.000000	0.000000	0.000000	0.000000	0.000000	0.000000	0.000000	0.000000	0.000000	0.000000	0.000000	0.000000	0.000000	0.000000	0.000000	0.000000	1.239823	-0.762937	-0.107990	10.607210	-0.840670	0.179031	0.642474	0.218329	0.102197	0.000000	0.000000	0.000000	6.915395	0.379653	4.162908	2.318033	-1.666489	-2.705095	-0.735651	1.266040	0.615214	0.000000	0.000000	0.000000
	0.3135	96.0829	2.7364	-9.147637	0.128641	-1.595849	0.000000	0.000000	0.000000	2.434490	1.583120	0.698858	8.056026	5.381413	2.067926	0.000000	0.000000	0.000000	0.000000	0.000000	0.000000	0.000000	0.000000	-15.432690	13.209510	-21.477990	-60.219880	-2.359325	-31.695480	-0.016440	0.000000	0.000000	0.000000	0.000000	0.000000	0.000000	0.000000	0.000000	0.000000	0.000000	0.000000	0.000000	0.000000	0.000000	0.000000	0.000000	0.000000	0.000000	0.000000	0.000000	0.000000	0.000000	0.000000	0.000000	0.000000	0.000000	0.000000	0.000000	0.000000	0.000000	0.000000	0.000000	0.000000	0.000000	0.000000	0.000000	0.000000	0.000000	0.000000	0.000000	0.000000	0.000000	0.000000	0.000000	0.000000	0.000000	0.000000	0.000000	0.000000	0.000000	15.088600	11.558460	23.285980	57.974850	-2.245541	28.533580	0.014363	0.000000	0.000000	0.000000	0.000000	0.000000	0.000000	0.000000	0.000000	0.000000	0.000000	0.000000	0.000000	0.000000	0.000000	0.000000	0.000000	0.000000	0.000000	0.000000	0.000000	0.000000	0.000000	0.000000	0.000000	0.000000	0.000000	0.000000	0.000000	0.000000	0.000000	0.000000	0.000000	0.000000	0.000000	0.000000	0.000000	0.000000	0.000000	0.000000	0.000000	0.000000	0.000000	0.000000	0.000000	0.000000	0.000000	0.000000	0.000000	1.419446	-0.680390	-0.076302	10.417670	-0.732084	0.190352	0.577082	0.125166	0.059083	0.000000	0.000000	0.000000	7.077448	0.389774	4.182994	2.073216	-2.230322	-2.688983	-0.758243	1.728368	0.840756	0.000000	0.000000	0.000000
	0.3124	96.0984	2.7122	-9.183978	0.161854	-1.574707	0.000000	0.000000	0.000000	2.452867	1.581716	0.685571	8.118858	5.375252	2.021824	0.000000	0.000000	0.000000	0.000000	0.000000	0.000000	0.000000	0.000000	-15.450080	13.017660	-21.349100	-60.431410	-2.661415	-31.786200	-0.018181	0.000000	0.000000	0.000000	0.000000	0.000000	0.000000	0.000000	0.000000	0.000000	0.000000	0.000000	0.000000	0.000000	0.000000	0.000000	0.000000	0.000000	0.000000	0.000000	0.000000	0.000000	0.000000	0.000000	0.000000	0.000000	0.000000	0.000000	0.000000	0.000000	0.000000	0.000000	0.000000	0.000000	0.000000	0.000000	0.000000	0.000000	0.000000	0.000000	0.000000	0.000000	0.000000	0.000000	0.000000	0.000000	0.000000	0.000000	0.000000	0.000000	0.000000	15.105820	11.397720	23.087200	58.267960	-2.560955	28.523540	0.011524	0.000000	0.000000	0.000000	0.000000	0.000000	0.000000	0.000000	0.000000	0.000000	0.000000	0.000000	0.000000	0.000000	0.000000	0.000000	0.000000	0.000000	0.000000	0.000000	0.000000	0.000000	0.000000	0.000000	0.000000	0.000000	0.000000	0.000000	0.000000	0.000000	0.000000	0.000000	0.000000	0.000000	0.000000	0.000000	0.000000	0.000000	0.000000	0.000000	0.000000	0.000000	0.000000	0.000000	0.000000	0.000000	0.000000	0.000000	0.000000	1.465843	-0.636675	-0.081495	10.374290	-0.678520	0.190951	0.528090	0.137972	0.065199	0.000000	0.000000	0.000000	7.124510	0.391890	4.174773	1.995671	-2.366226	-2.679153	-0.776984	1.835472	0.893146	0.000000	0.000000	0.000000
	0.3200	96.1051	2.7066	-9.235728	0.188125	-1.552517	0.000000	0.000000	0.000000	2.455441	1.579690	0.684398	8.128581	5.367058	2.017410	0.000000	0.000000	0.000000	0.000000	0.000000	0.000000	0.000000	0.000000	-15.430790	12.968650	-21.364930	-60.482200	-2.710950	-31.763350	-0.017787	0.000000	0.000000	0.000000	0.000000	0.000000	0.000000	0.000000	0.000000	0.000000	0.000000	0.000000	0.000000	0.000000	0.000000	0.000000	0.000000	0.000000	0.000000	0.000000	0.000000	0.000000	0.000000	0.000000	0.000000	0.000000	0.000000	0.000000	0.000000	0.000000	0.000000	0.000000	0.000000	0.000000	0.000000	0.000000	0.000000	0.000000	0.000000	0.000000	0.000000	0.000000	0.000000	0.000000	0.000000	0.000000	0.000000	0.000000	0.000000	0.000000	0.000000	15.084000	11.347970	23.046300	58.366760	-2.651266	28.512190	0.010938	0.000000	0.000000	0.000000	0.000000	0.000000	0.000000	0.000000	0.000000	0.000000	0.000000	0.000000	0.000000	0.000000	0.000000	0.000000	0.000000	0.000000	0.000000	0.000000	0.000000	0.000000	0.000000	0.000000	0.000000	0.000000	0.000000	0.000000	0.000000	0.000000	0.000000	0.000000	0.000000	0.000000	0.000000	0.000000	0.000000	0.000000	0.000000	0.000000	0.000000	0.000000	0.000000	0.000000	0.000000	0.000000	0.000000	0.000000	0.000000	1.489550	-0.628608	-0.085461	10.387940	-0.676163	0.157284	0.515187	0.150101	0.070951	0.000000	0.000000	0.000000	7.169267	0.393698	4.162604	1.999564	-2.356362	-2.672560	-0.786546	1.845403	0.898163	0.000000	0.000000	0.000000
